<svg xmlns="http://www.w3.org/2000/svg" width="280.5" height="280.504"><g transform="translate(-9.75 -762.115)"><path d="m111.312 776.895-6.61 26.41c-41.397 17.432-70.753 58.072-71.505 105.867-.085 5.402.205 10.727.833 15.945L15.25 943.28l38.688 67.005 24.435-6.985c19.304 15.007 43.457 24.101 69.787 24.516 27.647.435 53.195-8.775 73.453-24.516l24.449 6.985 38.688-67.005-18.78-18.162c.485-4.028.768-8.117.833-12.264.772-49.09-28.856-91.594-71.506-109.548l-6.609-26.41z" style="fill:#fff;stroke:none;fill-opacity:1;stroke-opacity:1"/><path style="fill:#000;stroke:#000;stroke-width:1;stroke-linejoin:round;stroke-miterlimit:4;stroke-opacity:1;stroke-dasharray:none;stroke-dashoffset:0;fill-opacity:1" d="m111.312 776.895-6.61 26.41c-41.397 17.432-70.753 58.072-71.505 105.867-.085 5.402.205 10.727.833 15.945L15.25 943.28l38.688 67.005 24.435-6.985c19.304 15.007 43.457 24.101 69.787 24.516 27.647.435 53.195-8.775 73.453-24.516l24.449 6.985 38.688-67.005-18.78-18.162c.485-4.028.768-8.117.833-12.264.772-49.09-28.856-91.594-71.506-109.548l-6.609-26.41h-77.376zm4.299 6.448h68.778l6.247 25c41.463 16.42 70.489 57.183 69.746 104.402a111.515 111.515 0 0 1-.887 12.386l-.631 1.088 18.148 17.557-34.39 59.563-24.273-6.945-1.37 2.378c-19.029 14.542-42.907 23.028-68.712 22.622-24.56-.387-47.122-8.77-65.246-22.622l-1.37-2.378-24.274 6.945-34.39-59.563 18.15-17.557-.632-1.088a111.325 111.325 0 0 1-.887-15.851c.724-45.999 29.485-84.968 69.746-100.924l6.247-25.013z"/><circle style="fill:#000;fill-opacity:1;stroke:none;stroke-width:4.50199986;stroke-linejoin:round;stroke-miterlimit:4;stroke-dasharray:none;stroke-opacity:1;paint-order:normal" cx="150.464" cy="912.619" r="68.571"/><g transform="translate(68.556 829.11) scale(1.625)" style="fill:#fff;stroke:none;stroke-opacity:1;paint-order:normal;stroke-width:0;stroke-miterlimit:4;stroke-dasharray:none"><path d="M41.2 65.3c0-2.9-2.4-5.3-5.3-5.3H25.6c-.6 1.9-2.4 3.2-4.4 3.2-2.6 0-4.7-2.1-4.7-4.6 0-2.6 2.1-4.7 4.7-4.7 2.1 0 3.8 1.3 4.4 3.2H36c4.5 0 8.2 3.7 8.2 8.2v24.3c1.2.2 2.5.3 3.9.4V37.1c0-4.5 3.6-8.2 8.1-8.2h7.2c.5-1.9 2.4-3.4 4.5-3.4 2.6 0 4.7 2.1 4.7 4.7s-2.1 4.6-4.7 4.6c-2 0-3.7-1.2-4.3-3h-7.3c-2.9 0-5.2 2.4-5.2 5.3V90c1.3 0 2.7-.1 4-.3V46.8c0-4.5 3.6-8.1 8.1-8.1h25.3C83.5 22.2 68.2 10 50 10c-2 0-4 .2-5.9.5v22.1c0 4.5-3.7 8.1-8.2 8.1H25.5c-.6 1.7-2.4 3.1-4.4 3.1-2.6 0-4.7-2.1-4.7-4.7s2.1-4.7 4.7-4.7c2.1 0 3.9 1.3 4.5 3.3H36c2.9 0 5.3-2.3 5.3-5.2V11C23.3 15 10 31 10 50s13.3 35 31.2 39Z" style="fill:#fff;stroke:none;stroke-opacity:1;paint-order:normal;stroke-width:0;stroke-miterlimit:4;stroke-dasharray:none"/><circle cx="67.8" cy="30.2" r="2" style="fill:#fff;stroke:none;stroke-opacity:1;paint-order:normal;stroke-width:0;stroke-miterlimit:4;stroke-dasharray:none"/><circle cx="21.1" cy="39.2" r="2" style="fill:#fff;stroke:none;stroke-opacity:1;paint-order:normal;stroke-width:0;stroke-miterlimit:4;stroke-dasharray:none"/><circle cx="21.1" cy="58.6" r="2" style="fill:#fff;stroke:none;stroke-opacity:1;paint-order:normal;stroke-width:0;stroke-miterlimit:4;stroke-dasharray:none"/><circle cx="81.1" cy="51.2" r="2" style="fill:#fff;stroke:none;stroke-opacity:1;paint-order:normal;stroke-width:0;stroke-miterlimit:4;stroke-dasharray:none"/><path d="M63 41.6c-2.9 0-5.2 2.3-5.2 5.2v42.4c1.3-.3 2.8-.6 4.1-1.1V57.8c0-4.5 3.6-8.1 8.1-8.1h6.6c.6-1.9 2.4-3.1 4.4-3.1 2.6 0 4.7 2.1 4.7 4.7s-2.1 4.6-4.7 4.6c-2.1 0-3.9-1.4-4.5-3.3h-6.6c-2.9 0-5.1 2.3-5.1 5.2v29.4C79.6 81.2 90 66.8 90 50c0-2.9-.3-5.6-.9-8.4Z" style="fill:#fff;stroke:none;stroke-opacity:1;paint-order:normal;stroke-width:0;stroke-miterlimit:4;stroke-dasharray:none"/></g><path style="fill:#000;fill-opacity:1;stroke:none;stroke-width:1;stroke-linejoin:round;stroke-miterlimit:4;stroke-dasharray:none;stroke-dashoffset:0;stroke-opacity:1" d="M143.552 822.03v11.365c-38.996 3.233-69.937 35.602-70.565 75.549-.191 12.158 2.45 23.696 7.307 34l-9.833 5.682 6.448 11.176 9.847-5.682c13.677 19.637 36.28 32.64 62.035 33.046 26.627.419 50.3-12.722 64.453-33.046l9.847 5.682 6.448-11.176-9.833-5.67c.002-.003-.002-.01 0-.013a76.716 76.716 0 0 0 7.307-31.568c.642-40.766-30.51-74.643-70.565-77.967V822.03h-12.896zm12.896 24.315c32.825 3.282 58.197 31.245 57.67 64.815a63.915 63.915 0 0 1-5.63 25.308c-1.698 3.396-4.402 8.2-6.46 11.177-11.85 16.412-31.26 26.967-53.036 26.625-21.048-.331-39.575-10.772-51.02-26.625-3.586-5.53-3.631-5.578-6.46-11.177-3.756-8.33-5.783-17.597-5.63-27.336.518-32.891 25.711-59.586 57.67-62.774 2.488-.191 9.225-.36 12.896-.013z"/></g></svg>