<?xml version="1.0" encoding="UTF-8" standalone="no"?>
<!-- Created with Inkscape (http://www.inkscape.org/) -->

<svg
   xmlns:dc="http://purl.org/dc/elements/1.1/"
   xmlns:cc="http://creativecommons.org/ns#"
   xmlns:rdf="http://www.w3.org/1999/02/22-rdf-syntax-ns#"
   xmlns:svg="http://www.w3.org/2000/svg"
   xmlns="http://www.w3.org/2000/svg"
   xmlns:sodipodi="http://sodipodi.sourceforge.net/DTD/sodipodi-0.dtd"
   xmlns:inkscape="http://www.inkscape.org/namespaces/inkscape"
   width="280.49966"
   height="280.50449"
   id="svg2"
   version="1.1"
   inkscape:version="0.92.2 (5c3e80d, 2017-08-06)"
   sodipodi:docname="scp_tt_logo-small.svg"
   inkscape:export-filename="I:\SCP\INT\scp_tt_logo-small.png"
   inkscape:export-xdpi="171.12025"
   inkscape:export-ydpi="171.12025">
  <defs
     id="defs4">
    <marker
       style="overflow:visible"
       id="TriangleOutM"
       refX="0"
       refY="0"
       orient="auto"
       inkscape:stockid="TriangleOutM">
      <path
         transform="scale(0.4,0.4)"
         style="fill-rule:evenodd;stroke:#000000;stroke-width:1pt"
         d="m 5.77,0 -8.65,5 0,-10 8.65,5 z"
         id="path4022"
         inkscape:connector-curvature="0" />
    </marker>
    <marker
       style="overflow:visible"
       id="TriangleOutS"
       refX="0"
       refY="0"
       orient="auto"
       inkscape:stockid="TriangleOutS">
      <path
         transform="scale(0.2,0.2)"
         style="fill-rule:evenodd;stroke:#000000;stroke-width:1pt"
         d="m 5.77,0 -8.65,5 0,-10 8.65,5 z"
         id="path4025"
         inkscape:connector-curvature="0" />
    </marker>
  </defs>
  <sodipodi:namedview
     id="base"
     pagecolor="#ffffff"
     bordercolor="#666666"
     borderopacity="1.0"
     inkscape:pageopacity="0.0"
     inkscape:pageshadow="2"
     inkscape:zoom="1.979899"
     inkscape:cx="144.7661"
     inkscape:cy="152.78148"
     inkscape:document-units="px"
     inkscape:current-layer="layer1"
     showgrid="false"
     inkscape:showpageshadow="false"
     inkscape:window-width="1127"
     inkscape:window-height="1002"
     inkscape:window-x="2552"
     inkscape:window-y="408"
     inkscape:window-maximized="1"
     fit-margin-top="14.28"
     fit-margin-bottom="14.29"
     fit-margin-right="5"
     fit-margin-left="5"
     showguides="true"
     inkscape:guide-bbox="true"
     inkscape:snap-others="true"
     inkscape:snap-global="false">
    <inkscape:grid
       type="xygrid"
       id="grid3097"
       empspacing="5"
       visible="true"
       enabled="true"
       snapvisiblegridlinesonly="true"
       originx="-9.750165"
       originy="-9.7428411"
       spacingx="1"
       spacingy="1" />
  </sodipodi:namedview>
  <metadata
     id="metadata7">
    <rdf:RDF>
      <cc:Work
         rdf:about="">
        <dc:format>image/svg+xml</dc:format>
        <dc:type
           rdf:resource="http://purl.org/dc/dcmitype/StillImage" />
        <dc:title />
      </cc:Work>
    </rdf:RDF>
  </metadata>
  <g
     inkscape:label="Layer 1"
     inkscape:groupmode="layer"
     id="layer1"
     transform="translate(-9.750165,-762.11488)">
    <path
       inkscape:connector-curvature="0"
       id="path2995"
       d="m 111.31197,776.89488 -6.6092,26.40978 c -41.39771,17.43269 -70.753726,58.07217 -71.505667,105.86745 -0.08505,5.40206 0.20476,10.72686 0.832865,15.9453 l -18.779803,18.16174 38.68799,67.00505 24.435269,-6.9852 c 19.303182,15.0066 43.456866,24.1014 69.786176,24.5156 27.64738,0.435 53.19503,-8.7741 73.45352,-24.5156 l 24.44867,6.9852 38.68803,-67.00505 -18.77981,-18.16174 c 0.48516,-4.02887 0.76763,-8.11745 0.83287,-12.26455 0.77231,-49.08976 -28.85626,-91.59363 -71.50567,-109.5482 l -6.6092,-26.40978 z"
       style="fill:#ffffff;stroke:none;fill-opacity:1;stroke-opacity:1"
       sodipodi:nodetypes="cccccccsccccsccc" />
    <g
       id="g5453"
       transform="translate(92.289521,1137.1052)" />
    <path
       style="fill:#000000;stroke:#000000;stroke-width:1;stroke-linejoin:round;stroke-miterlimit:4;stroke-opacity:1;stroke-dasharray:none;stroke-dashoffset:0;fill-opacity:1"
       d="m 111.31197,776.89488 -6.6092,26.40978 c -41.39771,17.43269 -70.753726,58.07217 -71.505667,105.86745 -0.08505,5.40206 0.20476,10.72686 0.832865,15.9453 l -18.779803,18.16174 38.68799,67.00505 24.435269,-6.9852 c 19.303182,15.0066 43.456866,24.1014 69.786176,24.5156 27.64738,0.435 53.19503,-8.7741 73.45352,-24.5156 l 24.44867,6.9852 38.68803,-67.00505 -18.77981,-18.16174 c 0.48516,-4.02887 0.76763,-8.11745 0.83287,-12.26455 0.77231,-49.08976 -28.85626,-91.59363 -71.50567,-109.5482 l -6.6092,-26.40978 -77.37604,0 z m 4.29866,6.44797 68.77872,0 6.24651,24.99929 c 41.46285,16.42062 70.48877,57.18431 69.74589,104.40323 -0.0658,4.19183 -0.36759,8.32224 -0.88659,12.38548 l -0.6314,1.08806 18.14844,17.55727 -34.38932,59.56302 -24.27405,-6.94496 -1.37022,2.3777 c -19.02831,14.54166 -42.90667,23.02756 -68.71152,22.62156 -24.55998,-0.3864 -47.12217,-8.7687 -65.245723,-22.62156 l -1.370211,-2.3777 -24.274051,6.94496 -34.389363,-59.56302 18.148442,-17.55727 -0.63136,-1.08806 c -0.661357,-5.1821 -0.971192,-10.4753 -0.886593,-15.85125 0.723695,-45.99844 29.484647,-84.96742 69.745889,-100.92406 l 6.24651,-25.01269 z"
       id="path3825-1-9-0"
       inkscape:connector-curvature="0" />
    <circle
       style="fill:#000000;fill-opacity:1;stroke:none;stroke-width:4.50199986;stroke-linejoin:round;stroke-miterlimit:4;stroke-dasharray:none;stroke-opacity:1;paint-order:normal"
       id="path891"
       cx="150.46446"
       cy="912.61932"
       r="68.571426" />
    <g
       transform="matrix(1.625,0,0,1.625,68.55647,829.10957)"
       id="g14"
       style="fill:#ffffff;stroke:none;stroke-opacity:1;paint-order:normal;stroke-width:0;stroke-miterlimit:4;stroke-dasharray:none">
      <path
         inkscape:connector-curvature="0"
         d="M 41.2,65.3 C 41.2,62.4 38.8,60 35.9,60 H 25.6 c -0.6,1.9 -2.4,3.2 -4.4,3.2 -2.6,0 -4.7,-2.1 -4.7,-4.6 0,-2.6 2.1,-4.7 4.7,-4.7 2.1,0 3.8,1.3 4.4,3.2 H 36 c 4.5,0 8.2,3.7 8.2,8.2 v 24.3 c 1.2,0.2 2.5,0.3 3.9,0.4 V 37.1 c 0,-4.5 3.6,-8.2 8.1,-8.2 h 7.2 c 0.5,-1.9 2.4,-3.4 4.5,-3.4 2.6,0 4.7,2.1 4.7,4.7 0,2.6 -2.1,4.6 -4.7,4.6 -2,0 -3.7,-1.2 -4.3,-3 h -7.3 c -2.9,0 -5.2,2.4 -5.2,5.3 V 90 c 1.3,0 2.7,-0.1 4,-0.3 V 46.8 c 0,-4.5 3.6,-8.1 8.1,-8.1 H 88.5 C 83.5,22.2 68.2,10 50,10 c -2,0 -4,0.2 -5.9,0.5 v 22.1 c 0,4.5 -3.7,8.1 -8.2,8.1 H 25.5 c -0.6,1.7 -2.4,3.1 -4.4,3.1 -2.6,0 -4.7,-2.1 -4.7,-4.7 0,-2.6 2.1,-4.7 4.7,-4.7 2.1,0 3.9,1.3 4.5,3.3 H 36 c 2.9,0 5.3,-2.3 5.3,-5.2 V 11 C 23.3,15 10,31 10,50 10,69 23.3,85 41.2,89 Z"
         id="path2-2"
         style="fill:#ffffff;stroke:none;stroke-opacity:1;paint-order:normal;stroke-width:0;stroke-miterlimit:4;stroke-dasharray:none" />
      <circle
         cx="67.800003"
         cy="30.200001"
         r="2"
         id="circle4"
         style="fill:#ffffff;stroke:none;stroke-opacity:1;paint-order:normal;stroke-width:0;stroke-miterlimit:4;stroke-dasharray:none" />
      <circle
         cx="21.1"
         cy="39.200001"
         r="2"
         id="circle6"
         style="fill:#ffffff;stroke:none;stroke-opacity:1;paint-order:normal;stroke-width:0;stroke-miterlimit:4;stroke-dasharray:none" />
      <circle
         cx="21.1"
         cy="58.599998"
         r="2"
         id="circle8"
         style="fill:#ffffff;stroke:none;stroke-opacity:1;paint-order:normal;stroke-width:0;stroke-miterlimit:4;stroke-dasharray:none" />
      <circle
         cx="81.099998"
         cy="51.200001"
         r="2"
         id="circle10"
         style="fill:#ffffff;stroke:none;stroke-opacity:1;paint-order:normal;stroke-width:0;stroke-miterlimit:4;stroke-dasharray:none" />
      <path
         inkscape:connector-curvature="0"
         d="m 63,41.6 c -2.9,0 -5.2,2.3 -5.2,5.2 v 42.4 c 1.3,-0.3 2.8,-0.6 4.1,-1.1 V 57.8 c 0,-4.5 3.6,-8.1 8.1,-8.1 h 6.6 c 0.6,-1.9 2.4,-3.1 4.4,-3.1 2.6,0 4.7,2.1 4.7,4.7 0,2.6 -2.1,4.6 -4.7,4.6 -2.1,0 -3.9,-1.4 -4.5,-3.3 h -6.6 c -2.9,0 -5.1,2.3 -5.1,5.2 V 87.2 C 79.6,81.2 90,66.8 90,50 90,47.1 89.7,44.4 89.1,41.6 Z"
         id="path12-0"
         style="fill:#ffffff;stroke:none;stroke-opacity:1;paint-order:normal;stroke-width:0;stroke-miterlimit:4;stroke-dasharray:none" />
    </g>
    <path
       style="fill:#000000;fill-opacity:1;stroke:none;stroke-width:1;stroke-linejoin:round;stroke-miterlimit:4;stroke-dasharray:none;stroke-dashoffset:0;stroke-opacity:1"
       d="m 143.55198,822.0306 v 11.36455 c -38.99551,3.23307 -69.936895,35.60179 -70.56535,75.54861 -0.191109,12.15826 2.450363,23.696 7.307756,33.99959 l -9.833197,5.68224 6.448009,11.17646 9.846639,-5.68225 c 13.677643,19.63759 36.280963,32.64061 62.035163,33.04579 26.62714,0.41897 50.29955,-12.72206 64.45315,-33.04579 l 9.84663,5.68225 6.44801,-11.17646 -9.83319,-5.66884 c 0.002,-0.004 -0.002,-0.0105 0,-0.014 4.5191,-9.5934 7.13005,-20.27472 7.30772,-31.56815 0.64133,-40.7658 -30.51104,-74.64256 -70.56532,-77.9666 v -11.37796 h -12.89602 z m 12.89602,24.3142 c 32.82482,3.28228 58.19747,31.24509 57.66933,64.81544 -0.1421,9.02004 -2.14445,17.57463 -5.62858,25.30825 -1.6989,3.39504 -4.40262,8.19998 -6.46142,11.17656 -11.84957,16.41222 -31.25997,26.96729 -53.03483,26.6247 -21.04871,-0.33112 -39.57577,-10.77202 -51.019849,-26.6247 -3.587087,-5.53008 -3.632074,-5.5784 -6.461416,-11.17656 -3.75547,-8.32963 -5.781788,-17.59744 -5.628585,-27.33666 0.517465,-32.8908 25.71035,-59.5861 57.66933,-62.77359 2.48776,-0.19129 9.22503,-0.36013 12.89602,-0.0134 z"
       id="path4900-6-3"
       inkscape:connector-curvature="0"
       sodipodi:nodetypes="cccccccscccccsccccccccsccsccc" />
  </g>
</svg>
